<mxfile host="app.diagrams.net" agent="Mozilla/5.0 (Windows NT 10.0; Win64; x64) AppleWebKit/537.36 (KHTML, like Gecko) Chrome/130.0.0.0 Safari/537.36" version="24.8.3">
  <diagram name="Page-1" id="12345-67890">
    <mxGraphModel dx="2098" dy="1492" grid="0" gridSize="10" guides="1" tooltips="1" connect="1" arrows="1" fold="1" page="0" pageScale="1" pageWidth="1100" pageHeight="850" background="none" math="0" shadow="0">
      <root>
        <mxCell id="0" />
        <mxCell id="1" parent="0" />
        <mxCell id="LKYqRy5Tb7PnWjAP05V9-2" value="" style="edgeStyle=orthogonalEdgeStyle;rounded=0;orthogonalLoop=1;jettySize=auto;html=1;" parent="1" source="TVGD07vnX8AzpcqW4ruT-3" target="LKYqRy5Tb7PnWjAP05V9-1" edge="1">
          <mxGeometry relative="1" as="geometry" />
        </mxCell>
        <mxCell id="TVGD07vnX8AzpcqW4ruT-3" value="Hotline nurse" style="rounded=0;whiteSpace=wrap;html=1;" parent="1" vertex="1">
          <mxGeometry x="510" y="540" width="120" height="60" as="geometry" />
        </mxCell>
        <mxCell id="TVGD07vnX8AzpcqW4ruT-8" value="" style="edgeStyle=orthogonalEdgeStyle;rounded=0;orthogonalLoop=1;jettySize=auto;html=1;entryX=0.5;entryY=1;entryDx=0;entryDy=0;" parent="1" source="TVGD07vnX8AzpcqW4ruT-4" target="TVGD07vnX8AzpcqW4ruT-9" edge="1">
          <mxGeometry relative="1" as="geometry">
            <mxPoint x="820" y="190" as="targetPoint" />
          </mxGeometry>
        </mxCell>
        <mxCell id="CDvcQh2_v84ddmQvgI2k-2" value="" style="edgeStyle=orthogonalEdgeStyle;rounded=0;orthogonalLoop=1;jettySize=auto;html=1;" parent="1" source="TVGD07vnX8AzpcqW4ruT-4" target="CDvcQh2_v84ddmQvgI2k-1" edge="1">
          <mxGeometry relative="1" as="geometry" />
        </mxCell>
        <mxCell id="C_DkNWzkhmENbxMC921y-1" value="1" style="edgeLabel;html=1;align=center;verticalAlign=middle;resizable=0;points=[];" parent="CDvcQh2_v84ddmQvgI2k-2" vertex="1" connectable="0">
          <mxGeometry x="-0.7067" y="1" relative="1" as="geometry">
            <mxPoint as="offset" />
          </mxGeometry>
        </mxCell>
        <mxCell id="TVGD07vnX8AzpcqW4ruT-4" value="Patient" style="rounded=0;whiteSpace=wrap;html=1;" parent="1" vertex="1">
          <mxGeometry x="760" y="260" width="120" height="60" as="geometry" />
        </mxCell>
        <mxCell id="LKYqRy5Tb7PnWjAP05V9-4" value="" style="edgeStyle=orthogonalEdgeStyle;rounded=0;orthogonalLoop=1;jettySize=auto;html=1;entryX=0;entryY=0.5;entryDx=0;entryDy=0;" parent="1" source="TVGD07vnX8AzpcqW4ruT-5" target="LKYqRy5Tb7PnWjAP05V9-1" edge="1">
          <mxGeometry relative="1" as="geometry">
            <mxPoint x="320" y="720" as="targetPoint" />
          </mxGeometry>
        </mxCell>
        <mxCell id="LKYqRy5Tb7PnWjAP05V9-6" value="" style="edgeStyle=orthogonalEdgeStyle;rounded=0;orthogonalLoop=1;jettySize=auto;html=1;" parent="1" source="TVGD07vnX8AzpcqW4ruT-5" target="LKYqRy5Tb7PnWjAP05V9-5" edge="1">
          <mxGeometry relative="1" as="geometry" />
        </mxCell>
        <mxCell id="TVGD07vnX8AzpcqW4ruT-5" value="General Practionner" style="rounded=0;whiteSpace=wrap;html=1;" parent="1" vertex="1">
          <mxGeometry x="184" y="522" width="120" height="60" as="geometry" />
        </mxCell>
        <mxCell id="TVGD07vnX8AzpcqW4ruT-9" value="Name" style="ellipse;whiteSpace=wrap;html=1;" parent="1" vertex="1">
          <mxGeometry x="760" y="100" width="120" height="80" as="geometry" />
        </mxCell>
        <mxCell id="TVGD07vnX8AzpcqW4ruT-10" value="" style="edgeStyle=orthogonalEdgeStyle;rounded=0;orthogonalLoop=1;jettySize=auto;html=1;entryX=0.5;entryY=1;entryDx=0;entryDy=0;exitX=0.5;exitY=0;exitDx=0;exitDy=0;" parent="1" source="TVGD07vnX8AzpcqW4ruT-4" target="TVGD07vnX8AzpcqW4ruT-11" edge="1">
          <mxGeometry relative="1" as="geometry">
            <mxPoint x="830" y="270" as="sourcePoint" />
            <mxPoint x="830" y="200" as="targetPoint" />
          </mxGeometry>
        </mxCell>
        <mxCell id="TVGD07vnX8AzpcqW4ruT-11" value="contact info" style="ellipse;whiteSpace=wrap;html=1;fillColor=#dae8fc;strokeColor=#6c8ebf;" parent="1" vertex="1">
          <mxGeometry x="980" y="100" width="120" height="80" as="geometry" />
        </mxCell>
        <mxCell id="TVGD07vnX8AzpcqW4ruT-12" value="" style="edgeStyle=orthogonalEdgeStyle;rounded=0;orthogonalLoop=1;jettySize=auto;html=1;entryX=0.5;entryY=1;entryDx=0;entryDy=0;exitX=0.5;exitY=0;exitDx=0;exitDy=0;" parent="1" source="TVGD07vnX8AzpcqW4ruT-4" target="TVGD07vnX8AzpcqW4ruT-13" edge="1">
          <mxGeometry relative="1" as="geometry">
            <mxPoint x="710" y="410" as="sourcePoint" />
            <mxPoint x="710" y="340" as="targetPoint" />
          </mxGeometry>
        </mxCell>
        <mxCell id="TVGD07vnX8AzpcqW4ruT-13" value="severity" style="ellipse;whiteSpace=wrap;html=1;" parent="1" vertex="1">
          <mxGeometry x="870" y="50" width="120" height="80" as="geometry" />
        </mxCell>
        <mxCell id="TVGD07vnX8AzpcqW4ruT-14" value="" style="edgeStyle=orthogonalEdgeStyle;rounded=0;orthogonalLoop=1;jettySize=auto;html=1;entryX=0.5;entryY=1;entryDx=0;entryDy=0;exitX=0.5;exitY=0;exitDx=0;exitDy=0;" parent="1" source="TVGD07vnX8AzpcqW4ruT-4" target="TVGD07vnX8AzpcqW4ruT-15" edge="1">
          <mxGeometry relative="1" as="geometry">
            <mxPoint x="1020" y="390" as="sourcePoint" />
            <mxPoint x="1020" y="320" as="targetPoint" />
            <Array as="points">
              <mxPoint x="820" y="222" />
              <mxPoint x="745" y="222" />
              <mxPoint x="745" y="175" />
              <mxPoint x="583" y="175" />
            </Array>
          </mxGeometry>
        </mxCell>
        <mxCell id="TVGD07vnX8AzpcqW4ruT-15" value="appointment time" style="ellipse;whiteSpace=wrap;html=1;fillColor=#dae8fc;strokeColor=#6c8ebf;" parent="1" vertex="1">
          <mxGeometry x="523" y="48" width="120" height="80" as="geometry" />
        </mxCell>
        <mxCell id="CDvcQh2_v84ddmQvgI2k-1" value="&lt;font style=&quot;font-size: 10px;&quot;&gt;Enters info in Mr Ed&#39;s system&lt;/font&gt;" style="rhombus;whiteSpace=wrap;html=1;rounded=0;" parent="1" vertex="1">
          <mxGeometry x="584" y="244.5" width="126" height="91" as="geometry" />
        </mxCell>
        <mxCell id="CDvcQh2_v84ddmQvgI2k-3" value="Emergency Department&lt;div&gt;Manager&lt;/div&gt;" style="whiteSpace=wrap;html=1;rounded=0;" parent="1" vertex="1">
          <mxGeometry x="10" y="260" width="120" height="60" as="geometry" />
        </mxCell>
        <mxCell id="CDvcQh2_v84ddmQvgI2k-7" value="Name" style="ellipse;whiteSpace=wrap;html=1;" parent="1" vertex="1">
          <mxGeometry x="150" y="80" width="120" height="80" as="geometry" />
        </mxCell>
        <mxCell id="CDvcQh2_v84ddmQvgI2k-8" value="" style="edgeStyle=orthogonalEdgeStyle;rounded=0;orthogonalLoop=1;jettySize=auto;html=1;entryX=0.5;entryY=1;entryDx=0;entryDy=0;exitX=0.5;exitY=0;exitDx=0;exitDy=0;" parent="1" source="CDvcQh2_v84ddmQvgI2k-3" target="CDvcQh2_v84ddmQvgI2k-7" edge="1">
          <mxGeometry relative="1" as="geometry">
            <mxPoint x="180.5" y="270" as="sourcePoint" />
            <mxPoint x="340" y="120" as="targetPoint" />
          </mxGeometry>
        </mxCell>
        <mxCell id="C_DkNWzkhmENbxMC921y-10" value="" style="edgeStyle=orthogonalEdgeStyle;rounded=0;orthogonalLoop=1;jettySize=auto;html=1;entryX=0.5;entryY=0;entryDx=0;entryDy=0;" parent="1" source="CDvcQh2_v84ddmQvgI2k-9" target="TVGD07vnX8AzpcqW4ruT-15" edge="1">
          <mxGeometry relative="1" as="geometry">
            <mxPoint x="70" y="-20" as="targetPoint" />
            <Array as="points">
              <mxPoint x="70" y="-10" />
              <mxPoint x="278" y="-10" />
              <mxPoint x="278" y="19" />
              <mxPoint x="583" y="19" />
            </Array>
          </mxGeometry>
        </mxCell>
        <mxCell id="C_DkNWzkhmENbxMC921y-11" value="1" style="edgeLabel;html=1;align=center;verticalAlign=middle;resizable=0;points=[];" parent="C_DkNWzkhmENbxMC921y-10" vertex="1" connectable="0">
          <mxGeometry x="-0.9054" y="-1" relative="1" as="geometry">
            <mxPoint as="offset" />
          </mxGeometry>
        </mxCell>
        <mxCell id="C_DkNWzkhmENbxMC921y-12" value="1*" style="edgeLabel;html=1;align=center;verticalAlign=middle;resizable=0;points=[];" parent="C_DkNWzkhmENbxMC921y-10" vertex="1" connectable="0">
          <mxGeometry x="0.8621" y="-1" relative="1" as="geometry">
            <mxPoint as="offset" />
          </mxGeometry>
        </mxCell>
        <mxCell id="CDvcQh2_v84ddmQvgI2k-9" value="Emergency Department Availability" style="ellipse;whiteSpace=wrap;html=1;" parent="1" vertex="1">
          <mxGeometry x="10" y="60" width="120" height="80" as="geometry" />
        </mxCell>
        <mxCell id="CDvcQh2_v84ddmQvgI2k-10" value="" style="edgeStyle=orthogonalEdgeStyle;rounded=0;orthogonalLoop=1;jettySize=auto;html=1;entryX=0.5;entryY=1;entryDx=0;entryDy=0;exitX=0.5;exitY=0;exitDx=0;exitDy=0;" parent="1" source="CDvcQh2_v84ddmQvgI2k-3" target="CDvcQh2_v84ddmQvgI2k-9" edge="1">
          <mxGeometry relative="1" as="geometry">
            <mxPoint x="260" y="230" as="sourcePoint" />
            <mxPoint x="350" y="130" as="targetPoint" />
          </mxGeometry>
        </mxCell>
        <mxCell id="CDvcQh2_v84ddmQvgI2k-13" value="1" style="edgeStyle=orthogonalEdgeStyle;rounded=0;orthogonalLoop=1;jettySize=auto;html=1;" parent="1" source="CDvcQh2_v84ddmQvgI2k-1" target="CDvcQh2_v84ddmQvgI2k-12" edge="1">
          <mxGeometry x="0.4091" relative="1" as="geometry">
            <mxPoint x="460" y="290" as="sourcePoint" />
            <mxPoint x="310" y="290" as="targetPoint" />
            <mxPoint as="offset" />
          </mxGeometry>
        </mxCell>
        <mxCell id="CDvcQh2_v84ddmQvgI2k-14" value="" style="edgeStyle=orthogonalEdgeStyle;rounded=0;orthogonalLoop=1;jettySize=auto;html=1;" parent="1" source="CDvcQh2_v84ddmQvgI2k-12" target="CDvcQh2_v84ddmQvgI2k-3" edge="1">
          <mxGeometry relative="1" as="geometry" />
        </mxCell>
        <mxCell id="C_DkNWzkhmENbxMC921y-4" value="1" style="edgeLabel;html=1;align=center;verticalAlign=middle;resizable=0;points=[];" parent="CDvcQh2_v84ddmQvgI2k-14" vertex="1" connectable="0">
          <mxGeometry x="-0.8529" relative="1" as="geometry">
            <mxPoint as="offset" />
          </mxGeometry>
        </mxCell>
        <mxCell id="C_DkNWzkhmENbxMC921y-5" value="1*" style="edgeLabel;html=1;align=center;verticalAlign=middle;resizable=0;points=[];" parent="CDvcQh2_v84ddmQvgI2k-14" vertex="1" connectable="0">
          <mxGeometry x="0.8253" relative="1" as="geometry">
            <mxPoint as="offset" />
          </mxGeometry>
        </mxCell>
        <mxCell id="CDvcQh2_v84ddmQvgI2k-12" value="Mr&#39;s Ed system" style="whiteSpace=wrap;html=1;rounded=0;" parent="1" vertex="1">
          <mxGeometry x="420" y="260" width="120" height="60" as="geometry" />
        </mxCell>
        <mxCell id="CDvcQh2_v84ddmQvgI2k-15" value="Put patient in triage of ED" style="rhombus;whiteSpace=wrap;html=1;" parent="1" vertex="1">
          <mxGeometry x="220" y="233" width="102" height="97" as="geometry" />
        </mxCell>
        <mxCell id="CDvcQh2_v84ddmQvgI2k-16" value="" style="endArrow=classic;html=1;rounded=0;exitX=0.5;exitY=1;exitDx=0;exitDy=0;entryX=0.5;entryY=0;entryDx=0;entryDy=0;edgeStyle=orthogonalEdgeStyle;" parent="1" source="CDvcQh2_v84ddmQvgI2k-17" target="TVGD07vnX8AzpcqW4ruT-5" edge="1">
          <mxGeometry width="50" height="50" relative="1" as="geometry">
            <mxPoint x="440" y="220" as="sourcePoint" />
            <mxPoint x="490" y="170" as="targetPoint" />
            <Array as="points">
              <mxPoint x="296" y="487" />
              <mxPoint x="244" y="487" />
            </Array>
          </mxGeometry>
        </mxCell>
        <mxCell id="C_DkNWzkhmENbxMC921y-3" value="1*" style="edgeLabel;html=1;align=center;verticalAlign=middle;resizable=0;points=[];" parent="CDvcQh2_v84ddmQvgI2k-16" vertex="1" connectable="0">
          <mxGeometry x="0.5349" relative="1" as="geometry">
            <mxPoint y="3" as="offset" />
          </mxGeometry>
        </mxCell>
        <mxCell id="CDvcQh2_v84ddmQvgI2k-18" value="" style="endArrow=classic;html=1;rounded=0;exitX=0.263;exitY=1.002;exitDx=0;exitDy=0;entryX=1;entryY=0.5;entryDx=0;entryDy=0;edgeStyle=orthogonalEdgeStyle;exitPerimeter=0;" parent="1" source="CDvcQh2_v84ddmQvgI2k-12" target="CDvcQh2_v84ddmQvgI2k-17" edge="1">
          <mxGeometry width="50" height="50" relative="1" as="geometry">
            <mxPoint x="480" y="320" as="sourcePoint" />
            <mxPoint x="360" y="440" as="targetPoint" />
            <Array as="points">
              <mxPoint x="452" y="408" />
              <mxPoint x="409" y="408" />
            </Array>
          </mxGeometry>
        </mxCell>
        <mxCell id="C_DkNWzkhmENbxMC921y-2" value="1" style="edgeLabel;html=1;align=center;verticalAlign=middle;resizable=0;points=[];" parent="CDvcQh2_v84ddmQvgI2k-18" vertex="1" connectable="0">
          <mxGeometry x="-0.3154" y="-1" relative="1" as="geometry">
            <mxPoint as="offset" />
          </mxGeometry>
        </mxCell>
        <mxCell id="CDvcQh2_v84ddmQvgI2k-17" value="&lt;font style=&quot;font-size: 11px;&quot;&gt;Send Patient to general practionner&lt;/font&gt;" style="rhombus;whiteSpace=wrap;html=1;" parent="1" vertex="1">
          <mxGeometry x="220" y="343" width="152" height="129" as="geometry" />
        </mxCell>
        <mxCell id="CDvcQh2_v84ddmQvgI2k-19" value="" style="endArrow=classic;html=1;rounded=0;exitX=0.5;exitY=1;exitDx=0;exitDy=0;entryX=0.5;entryY=0;entryDx=0;entryDy=0;edgeStyle=orthogonalEdgeStyle;" parent="1" source="CDvcQh2_v84ddmQvgI2k-21" target="TVGD07vnX8AzpcqW4ruT-3" edge="1">
          <mxGeometry width="50" height="50" relative="1" as="geometry">
            <mxPoint x="760" y="210" as="sourcePoint" />
            <mxPoint x="560" y="480" as="targetPoint" />
            <Array as="points">
              <mxPoint x="706" y="475" />
              <mxPoint x="570" y="475" />
            </Array>
          </mxGeometry>
        </mxCell>
        <mxCell id="C_DkNWzkhmENbxMC921y-8" value="1*" style="edgeLabel;html=1;align=center;verticalAlign=middle;resizable=0;points=[];" parent="CDvcQh2_v84ddmQvgI2k-19" vertex="1" connectable="0">
          <mxGeometry x="0.67" y="2" relative="1" as="geometry">
            <mxPoint as="offset" />
          </mxGeometry>
        </mxCell>
        <mxCell id="CDvcQh2_v84ddmQvgI2k-20" value="" style="endArrow=classic;html=1;rounded=0;exitX=0.75;exitY=1;exitDx=0;exitDy=0;entryX=0;entryY=0.5;entryDx=0;entryDy=0;edgeStyle=orthogonalEdgeStyle;" parent="1" source="CDvcQh2_v84ddmQvgI2k-12" target="CDvcQh2_v84ddmQvgI2k-21" edge="1">
          <mxGeometry width="50" height="50" relative="1" as="geometry">
            <mxPoint x="630" y="240" as="sourcePoint" />
            <mxPoint x="680" y="430" as="targetPoint" />
          </mxGeometry>
        </mxCell>
        <mxCell id="C_DkNWzkhmENbxMC921y-7" value="1" style="edgeLabel;html=1;align=center;verticalAlign=middle;resizable=0;points=[];" parent="CDvcQh2_v84ddmQvgI2k-20" vertex="1" connectable="0">
          <mxGeometry x="0.0808" y="2" relative="1" as="geometry">
            <mxPoint as="offset" />
          </mxGeometry>
        </mxCell>
        <mxCell id="CDvcQh2_v84ddmQvgI2k-21" value="Connect patient to Hotline nurse" style="rhombus;whiteSpace=wrap;html=1;" parent="1" vertex="1">
          <mxGeometry x="641" y="359" width="130" height="97" as="geometry" />
        </mxCell>
        <mxCell id="LKYqRy5Tb7PnWjAP05V9-1" value="Patient info" style="ellipse;whiteSpace=wrap;html=1;rounded=0;" parent="1" vertex="1">
          <mxGeometry x="360" y="660" width="120" height="80" as="geometry" />
        </mxCell>
        <mxCell id="LKYqRy5Tb7PnWjAP05V9-5" value="Prescription for medication" style="ellipse;whiteSpace=wrap;html=1;rounded=0;fillColor=#dae8fc;strokeColor=#6c8ebf;" parent="1" vertex="1">
          <mxGeometry x="160" y="640" width="80" height="80" as="geometry" />
        </mxCell>
      </root>
    </mxGraphModel>
  </diagram>
</mxfile>
